<?xml version="1.0" encoding="UTF-8" standalone="no"?>
<!-- Created with Inkscape (http://www.inkscape.org/) -->

<svg
   xmlns:dc="http://purl.org/dc/elements/1.1/"
   xmlns:cc="http://creativecommons.org/ns#"
   xmlns:rdf="http://www.w3.org/1999/02/22-rdf-syntax-ns#"
   xmlns:svg="http://www.w3.org/2000/svg"
   xmlns="http://www.w3.org/2000/svg"
   xmlns:sodipodi="http://sodipodi.sourceforge.net/DTD/sodipodi-0.dtd"
   xmlns:inkscape="http://www.inkscape.org/namespaces/inkscape"
   width="127.99999"
   height="127.99999"
   viewBox="0 0 128 128"
   id="svg2"
   version="1.1"
   inkscape:version="0.91 r13725"
   inkscape:export-filename="changeButton.png"
   inkscape:export-xdpi="180.00002"
   inkscape:export-ydpi="180.00002"
   sodipodi:docname="changeButton.svg">
  <defs
     id="defs4">
    <marker
       inkscape:stockid="Arrow2Mend"
       orient="auto"
       refY="0.0"
       refX="0.0"
       id="Arrow2Mend"
       style="overflow:visible;"
       inkscape:isstock="true">
      <path
         id="path4178"
         style="fill-rule:evenodd;stroke-width:0.625;stroke-linejoin:round;stroke:#424242;stroke-opacity:1;fill:#424242;fill-opacity:1"
         d="M 8.7185878,4.0337352 L -2.2072895,0.016013256 L 8.7185884,-4.0017078 C 6.9730900,-1.6296469 6.9831476,1.6157441 8.7185878,4.0337352 z "
         transform="scale(0.6) rotate(180) translate(0,0)" />
    </marker>
    <marker
       inkscape:stockid="Arrow2Lend"
       orient="auto"
       refY="0.0"
       refX="0.0"
       id="Arrow2Lend"
       style="overflow:visible;"
       inkscape:isstock="true">
      <path
         id="path4172"
         style="fill-rule:evenodd;stroke-width:0.625;stroke-linejoin:round;stroke:#424242;stroke-opacity:1;fill:#424242;fill-opacity:1"
         d="M 8.7185878,4.0337352 L -2.2072895,0.016013256 L 8.7185884,-4.0017078 C 6.9730900,-1.6296469 6.9831476,1.6157441 8.7185878,4.0337352 z "
         transform="scale(1.1) rotate(180) translate(1,0)" />
    </marker>
    <marker
       inkscape:stockid="Arrow1Lend"
       orient="auto"
       refY="0.0"
       refX="0.0"
       id="Arrow1Lend"
       style="overflow:visible;"
       inkscape:isstock="true">
      <path
         id="path4154"
         d="M 0.0,0.0 L 5.0,-5.0 L -12.5,0.0 L 5.0,5.0 L 0.0,0.0 z "
         style="fill-rule:evenodd;stroke:#424242;stroke-width:1pt;stroke-opacity:1;fill:#424242;fill-opacity:1"
         transform="scale(0.8) rotate(180) translate(12.5,0)" />
    </marker>
    <marker
       inkscape:stockid="Arrow1Lstart"
       orient="auto"
       refY="0.0"
       refX="0.0"
       id="Arrow1Lstart"
       style="overflow:visible"
       inkscape:isstock="true">
      <path
         id="path4151"
         d="M 0.0,0.0 L 5.0,-5.0 L -12.5,0.0 L 5.0,5.0 L 0.0,0.0 z "
         style="fill-rule:evenodd;stroke:#424242;stroke-width:1pt;stroke-opacity:1;fill:#424242;fill-opacity:1"
         transform="scale(0.8) translate(12.5,0)" />
    </marker>
  </defs>
  <sodipodi:namedview
     id="base"
     pagecolor="#ffffff"
     bordercolor="#666666"
     borderopacity="1.0"
     inkscape:pageopacity="0.0"
     inkscape:pageshadow="2"
     inkscape:zoom="0.98994949"
     inkscape:cx="180.32128"
     inkscape:cy="13.186208"
     inkscape:document-units="px"
     inkscape:current-layer="layer1"
     showgrid="false"
     fit-margin-top="0"
     fit-margin-left="0"
     fit-margin-right="0"
     fit-margin-bottom="0"
     units="px"
     inkscape:window-width="1366"
     inkscape:window-height="705"
     inkscape:window-x="-8"
     inkscape:window-y="-8"
     inkscape:window-maximized="1" />
  <metadata
     id="metadata7">
    <rdf:RDF>
      <cc:Work
         rdf:about="">
        <dc:format>image/svg+xml</dc:format>
        <dc:type
           rdf:resource="http://purl.org/dc/dcmitype/StillImage" />
        <dc:title></dc:title>
      </cc:Work>
    </rdf:RDF>
  </metadata>
  <g
     inkscape:label="Capa 1"
     inkscape:groupmode="layer"
     id="layer1"
     transform="translate(-25.253807,-113.20972)">
    <g
       id="g4660"
       transform="translate(-1.3022843,1.3022798)">
      <circle
         r="59.91692"
         cy="175.90744"
         cx="90.556091"
         id="path3336"
         style="opacity:1;fill:#b7b7b7;fill-opacity:1;fill-rule:nonzero;stroke:#444444;stroke-width:8.16616726;stroke-miterlimit:4;stroke-dasharray:none;stroke-opacity:1" />
      <g
         transform="matrix(0.59758784,-0.80180345,0.80180345,0.59758784,-104.72898,142.71141)"
         id="g4654">
        <path
           style="color:#000000;font-style:normal;font-variant:normal;font-weight:normal;font-stretch:normal;font-size:medium;line-height:normal;font-family:sans-serif;text-indent:0;text-align:start;text-decoration:none;text-decoration-line:none;text-decoration-style:solid;text-decoration-color:#000000;letter-spacing:normal;word-spacing:normal;text-transform:none;direction:ltr;block-progression:tb;writing-mode:lr-tb;baseline-shift:baseline;text-anchor:start;white-space:normal;clip-rule:nonzero;display:inline;overflow:visible;visibility:visible;opacity:1;isolation:auto;mix-blend-mode:normal;color-interpolation:sRGB;color-interpolation-filters:linearRGB;solid-color:#000000;solid-opacity:1;fill:#444444;fill-opacity:1;fill-rule:nonzero;stroke:none;stroke-width:2.00000024;stroke-linecap:butt;stroke-linejoin:miter;stroke-miterlimit:4;stroke-dasharray:none;stroke-dashoffset:0;stroke-opacity:1;color-rendering:auto;image-rendering:auto;shape-rendering:auto;text-rendering:auto;enable-background:accumulate"
           d="m 115.19749,143.18971 -20.34367,2.61258 17.1903,11.19005 c -0.66474,-1.58158 -0.97096,-3.24223 -0.95338,-4.88037 8.79269,4.63089 14.66567,13.83948 14.67496,24.31338 -0.0187,13.92174 -10.39395,25.60646 -24.21613,27.27075 a 1.3473723,1.3473723 0 0 0 -1.17735,1.49858 l 0.17977,1.49712 a 1.3473723,1.3473723 0 0 0 1.4986,1.17737 c 15.89966,-1.91447 27.89786,-15.4263 27.91763,-31.44087 a 1.3473723,1.3473723 0 0 0 0,-0.002 l 0,-0.002 a 1.3473723,1.3473723 0 0 0 0,-0.002 c -0.0104,-12.48679 -7.30526,-23.45397 -18.05376,-28.59105 0.68765,-1.75604 1.79224,-3.35714 3.28303,-4.64312 z"
           id="path4646"
           inkscape:connector-curvature="0" />
        <path
           sodipodi:type="inkscape:offset"
           inkscape:radius="0"
           inkscape:original="M 78.730469 142.12305 A 1.398449 1.398449 0 0 0 78.630859 142.13086 C 62.128469 144.1179 49.674819 158.14201 49.654297 174.76367 A 1.398449 1.398449 0 0 0 49.654297 174.76562 L 49.654297 174.76758 A 1.398449 1.398449 0 0 0 49.654297 174.76953 C 49.665097 187.72966 57.236616 199.11349 68.392578 204.44531 C 67.679189 206.26709 66.532564 207.92731 64.986328 209.26172 L 86.099609 206.55078 L 68.257812 194.9375 C 68.947755 196.57903 69.266296 198.30171 69.248047 200.00195 C 60.122044 195.19551 54.025274 185.63852 54.015625 174.76758 C 54.035085 160.31808 64.804249 148.19028 79.150391 146.46289 A 1.398449 1.398449 0 0 0 80.373047 144.90625 L 80.185547 143.35352 A 1.398449 1.398449 0 0 0 78.730469 142.12305 z "
           style="color:#000000;font-style:normal;font-variant:normal;font-weight:normal;font-stretch:normal;font-size:medium;line-height:normal;font-family:sans-serif;text-indent:0;text-align:start;text-decoration:none;text-decoration-line:none;text-decoration-style:solid;text-decoration-color:#000000;letter-spacing:normal;word-spacing:normal;text-transform:none;direction:ltr;block-progression:tb;writing-mode:lr-tb;baseline-shift:baseline;text-anchor:start;white-space:normal;clip-rule:nonzero;display:inline;overflow:visible;visibility:visible;opacity:1;isolation:auto;mix-blend-mode:normal;color-interpolation:sRGB;color-interpolation-filters:linearRGB;solid-color:#000000;solid-opacity:1;fill:#444444;fill-opacity:1;fill-rule:nonzero;stroke:none;stroke-width:2.00000024;stroke-linecap:butt;stroke-linejoin:miter;stroke-miterlimit:4;stroke-dasharray:none;stroke-dashoffset:0;stroke-opacity:1;color-rendering:auto;image-rendering:auto;shape-rendering:auto;text-rendering:auto;enable-background:accumulate"
           id="path4652"
           d="m 78.730469,142.12305 a 1.398449,1.398449 0 0 0 -0.09961,0.008 c -16.50239,1.98704 -28.95604,16.01115 -28.976562,32.63281 a 1.398449,1.398449 0 0 0 0,0.002 l 0,0.002 a 1.398449,1.398449 0 0 0 0,0.002 c 0.0108,12.96013 7.582319,24.34396 18.738281,29.67578 -0.713389,1.82178 -1.860014,3.482 -3.40625,4.81641 L 86.099609,206.55078 68.257812,194.9375 c 0.689943,1.64153 1.008484,3.36421 0.990235,5.06445 -9.126003,-4.80644 -15.222773,-14.36343 -15.232422,-25.23437 0.01946,-14.4495 10.788624,-26.5773 25.134766,-28.30469 a 1.398449,1.398449 0 0 0 1.222656,-1.55664 l -0.1875,-1.55273 a 1.398449,1.398449 0 0 0 -1.455078,-1.23047 z" />
      </g>
    </g>
  </g>
</svg>
